<svg width="200" height="200" viewBox="0 0 200 200" fill="none" xmlns="http://www.w3.org/2000/svg">
<path d="M108.333 166.796C110.544 166.796 112.663 167.674 114.226 169.237C115.789 170.799 116.667 172.919 116.667 175.129C116.667 177.339 115.789 179.459 114.226 181.022C112.663 182.585 110.544 183.462 108.333 183.462C106.123 183.462 104.004 182.585 102.441 181.022C100.878 179.459 100 177.339 100 175.129C100 172.919 100.878 170.799 102.441 169.237C104.004 167.674 106.123 166.796 108.333 166.796V166.796ZM79.1667 158.462C81.3769 158.462 83.4965 159.34 85.0593 160.903C86.6221 162.466 87.5001 164.586 87.5001 166.796C87.5001 169.006 86.6221 171.126 85.0593 172.688C83.4965 174.251 81.3769 175.129 79.1667 175.129C76.9566 175.129 74.837 174.251 73.2742 172.688C71.7114 171.126 70.8334 169.006 70.8334 166.796C70.8334 164.586 71.7114 162.466 73.2742 160.903C74.837 159.34 76.9566 158.462 79.1667 158.462V158.462ZM137.5 158.462C139.71 158.462 141.83 159.34 143.393 160.903C144.955 162.466 145.833 164.586 145.833 166.796C145.833 169.006 144.955 171.126 143.393 172.688C141.83 174.251 139.71 175.129 137.5 175.129C135.29 175.129 133.17 174.251 131.607 172.688C130.045 171.126 129.167 169.006 129.167 166.796C129.167 164.586 130.045 162.466 131.607 160.903C133.17 159.34 135.29 158.462 137.5 158.462ZM108.329 50.0417C134.733 50.0417 149.713 67.5167 151.892 88.625H152.558C169.55 88.625 183.325 102.363 183.325 119.313C183.325 136.262 169.55 150 152.558 150H64.1001C47.1084 150 33.3334 136.262 33.3334 119.313C33.3334 102.363 47.1084 88.625 64.1001 88.625H64.7667C66.9584 67.3792 81.9251 50.0417 108.329 50.0417V50.0417ZM108.329 60.4375C90.5751 60.4375 75.1001 74.8042 75.1001 94.6458C75.1001 97.7917 72.3667 100.258 69.2334 100.258H63.3167C52.5084 100.258 43.7459 109.067 43.7459 119.929C43.7459 130.796 52.5084 139.604 63.3167 139.604H153.342C164.15 139.604 172.913 130.796 172.913 119.929C172.913 109.067 164.15 100.262 153.342 100.262H147.425C144.292 100.262 141.558 97.7917 141.558 94.6458C141.558 74.55 126.083 60.4375 108.329 60.4375V60.4375ZM36.2876 84.5958C36.7778 85.7807 36.8115 87.1052 36.382 88.3134C35.9526 89.5216 35.0906 90.5278 33.9626 91.1375L33.4834 91.3667L23.8501 95.375C22.6246 95.8734 21.255 95.8844 20.0217 95.4057C18.7884 94.927 17.7848 93.9949 17.2165 92.8002C16.6482 91.6056 16.5582 90.2389 16.9649 88.98C17.3717 87.7211 18.2444 86.6654 19.4042 86.0292L19.8834 85.8L29.5167 81.7917C30.7865 81.266 32.213 81.2661 33.4827 81.7919C34.7524 82.3178 35.7613 83.3263 36.2876 84.5958ZM90.4542 44.4292L90.1959 44.5083C86.3459 45.7667 82.7626 47.4333 79.4876 49.4667C75.0127 47.5732 70.0518 47.1511 65.3213 48.2612C60.5908 49.3714 56.3357 51.9565 53.1703 55.643C50.005 59.3295 48.0934 63.9268 47.7115 68.7707C47.3296 73.6147 48.4973 78.4547 51.0459 82.5917C47.9105 83.7121 44.9331 85.233 42.1876 87.1167C38.3539 80.5512 36.9166 72.859 38.1208 65.3522C39.325 57.8453 43.0961 50.9887 48.7909 45.9516C54.4857 40.9146 61.7516 38.0091 69.3493 37.7307C76.947 37.4523 84.406 39.8182 90.4542 44.425V44.4292ZM23.2501 45.175L23.7792 45.3667L33.4459 49.4875C36.0667 50.5958 37.3251 53.6333 36.2542 56.2708C35.2542 58.7375 32.5751 59.9792 30.0876 59.2333L29.5626 59.0458L19.9001 54.9208C18.6376 54.3822 17.6362 53.3706 17.1105 52.1027C16.5848 50.8348 16.5766 49.4114 17.0876 48.1375C18.0876 45.675 20.7667 44.4292 23.2542 45.175H23.2501ZM53.9542 19.45L54.1834 19.9333L58.1834 29.5417C58.6956 30.7756 58.7141 32.1592 58.235 33.4063C57.7559 34.6535 56.8158 35.6688 55.6092 36.2424C54.4026 36.816 53.0217 36.904 51.7521 36.4882C50.4824 36.0724 49.4211 35.1846 48.7876 34.0083L48.5584 33.5292L44.5584 23.9208C44.0401 22.686 44.0174 21.299 44.495 20.0478C44.9726 18.7966 45.9137 17.7775 47.123 17.2021C48.3323 16.6267 49.7168 16.5392 50.9889 16.9578C52.261 17.3764 53.3229 18.2689 53.9542 19.45V19.45ZM91.6542 17.1167C94.1626 18.1583 95.4417 20.9083 94.6959 23.4542L94.5042 23.9958L90.3709 33.4792C89.8473 34.7114 88.8741 35.698 87.6491 36.2383C86.4241 36.7787 85.0394 36.8322 83.7763 36.388C82.5133 35.9438 81.4668 35.0353 80.8497 33.8471C80.2326 32.659 80.0912 31.2804 80.4542 29.9917L80.6459 29.45L84.7751 19.9667C85.3097 18.6768 86.3346 17.6519 87.6246 17.1175C88.9146 16.5831 90.364 16.5828 91.6542 17.1167V17.1167Z" fill="white"/>
</svg>
