<svg width="200" height="200" viewBox="0 0 200 200" fill="none" xmlns="http://www.w3.org/2000/svg">
<path d="M100 30C124.65 30 138.63 45.74 140.66 64.74H141.28C157.14 64.74 170 77.11 170 92.37C170 107.63 157.14 120 141.28 120L134.25 119.99V120H133.95L124.38 137.41C123.728 138.548 122.656 139.384 121.393 139.738C120.131 140.092 118.78 139.937 117.631 139.305C116.483 138.673 115.628 137.615 115.252 136.359C114.876 135.103 115.008 133.749 115.62 132.59L122.55 119.99H104.37V120H103.96L94.38 137.41C93.7282 138.548 92.6556 139.384 91.3933 139.738C90.131 140.092 88.7801 139.937 87.6314 139.305C86.4827 138.673 85.6282 137.615 85.252 136.359C84.8758 135.103 85.008 133.749 85.62 132.59L92.55 119.99H74.32V120H73.96L64.38 137.41C63.7282 138.548 62.6556 139.384 61.3933 139.738C60.131 140.092 58.7801 139.937 57.6314 139.305C56.4827 138.673 55.6282 137.615 55.252 136.359C54.8758 135.103 55.008 133.749 55.62 132.59L62.55 119.99L58.72 120C42.86 120 30 107.63 30 92.37C30 77.67 41.92 65.66 56.97 64.79L59.34 64.74C61.39 45.61 75.35 30 100 30ZM71.1 110H141.81C151.87 110 160 102.21 160 92.6C160 83 151.86 75.21 141.82 75.21H136.32C133.42 75.21 130.87 73.03 130.87 70.25C130.87 52.48 116.5 40 100 40C83.5 40 69.13 52.7 69.13 70.25C69.13 73.03 66.59 75.21 63.68 75.21H58.18C48.14 75.21 40 83 40 92.61C40 102.2 48.14 110 58.18 110H70.91C70.9767 109.999 71.0433 109.999 71.11 110H71.1Z" fill="white"/>
<path d="M77.4799 143.16C78.6307 143.818 79.473 144.906 79.8218 146.185C80.1706 147.464 79.9973 148.829 79.3399 149.98L69.3399 167.48C68.6655 168.598 67.5806 169.408 66.317 169.736C65.0535 170.065 63.7115 169.886 62.5779 169.238C61.4443 168.591 60.6091 167.525 60.2507 166.27C59.8923 165.014 60.0392 163.669 60.6599 162.52L70.6599 145.02C71.3179 143.869 72.4059 143.027 73.6848 142.678C74.9637 142.329 76.3288 142.503 77.4799 143.16V143.16Z" fill="white"/>
<path d="M109.34 149.98C109.961 148.831 110.108 147.486 109.749 146.23C109.391 144.975 108.555 143.909 107.422 143.262C106.288 142.614 104.946 142.435 103.683 142.764C102.419 143.092 101.334 143.902 100.66 145.02L90.6599 162.52C90.0392 163.669 89.8923 165.014 90.2507 166.27C90.6091 167.525 91.4443 168.591 92.5779 169.238C93.7115 169.886 95.0535 170.065 96.317 169.736C97.5806 169.408 98.6655 168.598 99.3399 167.48L109.34 149.98V149.98Z" fill="white"/>
</svg>
