<svg width="40" height="40" viewBox="0 0 40 40" fill="none" xmlns="http://www.w3.org/2000/svg">
<path d="M16.6667 30C19.625 29.9994 22.498 29.0091 24.8284 27.1867L32.155 34.5133L34.5117 32.1567L27.185 24.83C29.0084 22.4995 29.9993 19.6257 30 16.6667C30 9.31501 24.0184 3.33334 16.6667 3.33334C9.31504 3.33334 3.33337 9.31501 3.33337 16.6667C3.33337 24.0183 9.31504 30 16.6667 30ZM16.6667 6.66668C22.1817 6.66668 26.6667 11.1517 26.6667 16.6667C26.6667 22.1817 22.1817 26.6667 16.6667 26.6667C11.1517 26.6667 6.66671 22.1817 6.66671 16.6667C6.66671 11.1517 11.1517 6.66668 16.6667 6.66668Z" fill="#0D6FD2"/>
</svg>
